PathFileType	4	(X/Y/Z)	Patient4_TMGait_0pt5_01_left_10.trc.trc
DataRate	CameraRate	NumFrames	NumMarkers	Units	OrigDataRate	OrigDataStartFrame	OrigNumFrames
71.794871794872	71.794871794872	6	33	mm	71.794871794872	53	       141
Frame#	Time	L.ASIS			Sacral			L.Shoulder			Chest			R.Shoulder			Neck			R.ASIS			R.Thigh.Superior			R.Thigh.Lateral			R.Thigh.Inferior			R.Patella			L.Thigh.Superior			L.Thigh.Lateral			L.Thigh.Inferior			L.Patella			L.Shank.Superior			L.Shank.Lateral			L.Shank.Inferior			R.Shank.Superior			R.Shank.Lateral			R.Shank.Inferior			R.Heel			R.Midfoot.Superior			R.Midfoot.Lateral			R.Toe			L.Heel			L.Midfoot.Lateral			L.Midfoot.Superior			L.Toe			L.Elbow			L.Wrist			R.Elbow			R.Wrist			
		X1	Y1	Z1	X2	Y2	Z2	X3	Y3	Z3	X4	Y4	Z4	X5	Y5	Z5	X6	Y6	Z6	X7	Y7	Z7	X8	Y8	Z8	X9	Y9	Z9	X10	Y10	Z10	X11	Y11	Z11	X12	Y12	Z12	X13	Y13	Z13	X14	Y14	Z14	X15	Y15	Z15	X16	Y16	Z16	X17	Y17	Z17	X18	Y18	Z18	X19	Y19	Z19	X20	Y20	Z20	X21	Y21	Z21	X22	Y22	Z22	X23	Y23	Z23	X24	Y24	Z24	X25	Y25	Z25	X26	Y26	Z26	X27	Y27	Z27	X28	Y28	Z28	X29	Y29	Z29	X30	Y30	Z30	X31	Y31	Z31	X32	Y32	Z32	X33	Y33	Z33	

53	14.114285714286	760.589033256034	963.847257592305	274.863269361351	546.886705169758	1013.595647559135	433.056121839954	717.974982705674	1436.453505964386	239.728726518283	822.212644026087	1371.140204646531	401.901783382005	740.192763596554	1447.684771165065	576.097463719577	717.728817073030	1502.500504000004	389.647547609060	773.736552921176	952.429955584736	549.048123470980	849.270213468351	772.687424439476	520.185729518547	801.955064060392	653.185637915020	590.936970787444	889.564685581757	609.303503359518	512.120596262929	901.969977912243	495.312848672315	533.981593927252	802.615504423620	751.061189025004	306.825978758313	708.112132868801	639.306964848748	252.343625602225	788.822071926062	559.801931795163	316.351665931661	785.964644374332	491.926622975476	327.812658721047	764.233553221096	421.448256972427	321.318911144000	679.303148878593	302.053973592588	275.696153973409	737.020371583165	195.772509699462	349.430451201905	825.030038958068	422.774491014107	540.690835214539	703.426816017541	383.590693361954	600.002079350807	688.383530082868	275.403944309864	551.384375141823	485.563967654126	209.827614343435	520.437070976771	655.432473493400	161.673246709263	567.941823226947	546.176387025024	162.612900834690	601.178954153953	723.927054357610	56.693917839152	611.354774967173	614.628890798924	37.770875661383	398.899031244112	687.645458188577	34.763688793443	316.706984931276	770.999652179731	96.322978806566	341.051941060888	899.050309426919	45.127676098930	312.618630182134	718.177932504570	1084.950338267191	108.628903753463	859.014634234637	864.527937992513	96.719337553109	727.768001790480	1097.062315200812	690.921812963604	836.824327423460	859.516253426394	681.175445053693	
54	14.128214285714	760.880872958870	963.972702572156	274.690466778135	545.930453267576	1013.621667093964	431.343335450488	719.540947829359	1436.878834751027	239.426853176564	821.917972127025	1371.221162855231	402.644483999148	738.106626619923	1447.487336095245	576.075253962401	717.792101838327	1502.722356495165	389.507479352816	772.121735079101	953.218109278796	549.077917078549	850.272531524883	775.911251124994	519.517942481976	805.856719223367	655.879198345395	590.662664866849	893.385536138754	613.306806354688	511.035067058700	908.532961997364	500.044917019383	533.158074386743	801.232594984970	750.383956884594	307.508003127134	706.450749167363	639.149296586094	252.157011465338	786.075726778754	559.109257115584	316.899914490624	782.559213599742	491.247806279180	328.456432126198	760.411486453066	420.917083635289	321.833584360693	674.935739649341	302.130562487717	275.632129681074	731.188734301118	195.412281414703	349.744878105447	833.962603944657	425.537301100427	540.415083770770	714.274569595636	382.112720277142	600.439474304577	702.748604216761	273.408563356964	551.968904362655	502.322748354120	200.645458547257	522.311204036261	673.995923913736	158.618021104969	568.799700402274	565.040856112578	155.505720726431	602.622887628143	746.281471878796	56.017841701341	611.492965953104	607.606691428335	37.834243117521	398.895598148607	680.697700510269	34.816336301012	316.737490901513	764.142196865258	96.222159719192	341.222061123301	892.170460721323	44.718377040295	312.677789636302	724.940865121815	1086.567944594534	105.802210993489	874.759248946982	872.097060200864	93.444068062473	715.363931246768	1097.680978604350	691.258797027436	809.953934769894	853.569554428527	685.346346953813	
55	14.142142857143	761.227478009832	964.054532631215	274.641180902241	545.005079812664	1013.589419541527	429.778138683869	721.116623165817	1437.205188572548	239.273726632296	821.637307837668	1371.220869667271	403.518888688300	736.049924202757	1447.247739067325	576.151198692460	717.862914746666	1502.862231543121	389.483688017386	770.523026860629	953.840951227350	549.203997580374	850.901238953947	778.726175666299	519.064691412220	809.086220852620	658.305581214479	590.625987094752	896.352336476338	616.824688781499	510.158467089182	914.124871150042	504.572752829556	532.576560847195	799.923141299891	749.695097813035	308.088039303705	704.783037286988	638.956650182308	252.003816923842	783.402662636319	558.402812994653	317.338188571355	779.231914314457	490.541777377311	329.008413730831	756.640818353142	420.347462136104	322.276559603313	670.562134307218	302.189158578577	275.567648506175	725.378647025739	195.036179714847	350.011318433037	842.325376740329	428.017029708877	540.349538929776	724.966562583006	379.751055565924	601.068921606191	717.632634283755	270.605956818717	552.686015539219	520.331293140656	189.648917495778	524.243188327364	693.822948597902	154.851724278491	569.875014990785	585.284748104789	147.002045677932	604.151636393465	770.308223731202	55.076977762057	611.707850427258	600.597740712751	37.902568936179	398.886943680137	673.758318191728	34.864066009454	316.762908770106	757.294119902897	96.123296193341	341.372674480035	885.301977289179	44.296173108336	312.736842478376	731.358800136049	1088.201579996678	103.209465677230	890.177181009477	880.218944175606	90.555996181986	702.919430780580	1098.671719953277	691.685298866190	783.392225101693	849.252169074953	689.353180216154	
56	14.156071428571	761.643690078985	964.107316385159	274.713371629895	544.141542594710	1013.507041403851	428.365854302488	722.669177401039	1437.433278486152	239.273420299859	821.367114553823	1371.155685768421	404.515967947759	734.037530656099	1446.985314954199	576.329587930617	717.936612203361	1502.926325836184	389.578370064015	768.958726528480	954.291278962428	549.420841194591	851.143215064124	781.072263239231	518.840280503413	811.566343633709	660.394155539967	590.837638254140	898.438414213313	619.778357391881	509.555259842051	918.691024885478	508.823286601535	532.280563487059	798.672993202500	748.983359789311	308.563342609394	703.042647358534	638.746450690904	251.887247818426	780.698997951024	557.679225933046	317.678605202371	775.865600250988	489.818644309107	329.486340481302	752.825532387634	419.757007662386	322.654205876159	666.115171030538	302.231120366011	275.506724692288	719.556302550337	194.658727583187	350.237061412001	850.059109587331	430.202696949761	540.519156593713	735.476351412969	376.608656922449	601.876793609156	732.969321492989	267.177536358406	553.523132540812	539.631802360019	177.193780168504	526.130876482505	714.789406662404	150.629498039042	571.128161923817	606.853869982621	137.454212842097	605.697161146599	795.767893151588	54.157548815002	612.021940749477	593.603233324554	37.972139030335	398.869255668101	666.822248587471	34.904424203870	316.781912764889	750.447997712361	96.029968929962	341.500904448549	878.437370800821	43.881308956906	312.792889355991	737.464615636021	1089.828593350477	100.856623930765	905.193822589165	888.845705971114	88.065760207668	690.490971546935	1100.037604488954	692.176981727352	757.358040472970	846.487220389997	693.156551807411	
57	14.170000000000	762.138715903520	964.140037650132	274.910276293483	543.371130125823	1013.384449879383	427.109516135204	724.171824947510	1437.569647383599	239.430515106762	821.107374117685	1371.042845197497	405.627367242274	732.087399883134	1446.718098624519	576.616206590193	718.010204064560	1502.922997545400	389.796375077238	767.447408880047	954.569442318018	549.731491318809	850.987188320913	782.902349783977	518.861250107975	813.218071024179	662.081571920871	591.297788518602	899.628379356708	622.107399927492	509.288147079756	922.188390023995	512.733537739468	532.299153847736	797.453181686448	748.236746010168	308.959491369578	701.166252832217	638.538306134235	251.809250220803	777.855846205619	556.937579840535	317.945198492326	772.340896880115	489.091198580936	329.910707479026	748.866286818164	419.166649574891	322.976908344410	661.527254265140	302.259133043494	275.451714542663	713.685394431514	194.295549930796	350.431591690242	857.112672091498	432.100093944250	540.934628555838	745.794936304796	372.809334023691	602.852661163826	748.686758257522	263.333310966501	554.464113819334	560.241093030480	163.688718375507	527.902671987778	736.756679352862	146.213012166356	572.494945731285	629.686559606990	127.238694705243	607.197419235977	822.410670356961	53.547766296056	612.412125604168	586.622182827349	38.039282848330	398.839202784639	659.883586960667	34.935097484054	316.793968190956	743.595796472148	95.945855967478	341.605439082130	871.568210411428	43.494182114165	312.843620277324	743.293152371712	1091.433612745537	98.754406981621	919.737288801242	897.923782796568	85.987754424699	678.144574409119	1101.772724057406	692.703376601287	732.041036514668	845.159098312685	696.732070986804	
58	14.183928571429	762.713567001565	964.153507095579	275.240029725215	542.721308737828	1013.230960954502	426.009016012969	725.607198957860	1437.623843184952	239.749787397660	820.862213686884	1370.897163559008	406.846679995625	730.220649384670	1446.460381064491	577.018463239610	718.082670906481	1502.860283191241	390.143915706271	766.006561760673	954.680899730606	550.145758667134	850.428512201373	784.183099686118	519.145009419438	813.971003020711	663.314132505978	591.996031342395	899.923211184762	623.770833841302	509.411486615993	924.590559369113	516.250219542064	532.643668541236	796.223327715778	747.443717043315	309.324528293954	699.100470396824	638.351309694830	251.769791892340	774.771808578329	556.179693534134	318.169196224229	768.550027164926	488.373602240373	330.299184871571	744.670667918952	418.598380131758	323.255780411968	656.736963440351	302.276884194479	275.402692156737	707.731024664544	193.961526758565	350.604142746961	863.444206478338	433.728746120632	541.591179805000	755.924326091951	368.492762259404	603.987990870794	764.701355105941	259.298904577839	555.488972243495	582.132083792409	149.578897168710	529.519216482664	759.566120048812	141.855114323208	573.893330998045	653.698027173037	116.739003820285	608.598271304005	849.972439219513	53.509970990320	612.814505644596	579.651363219306	38.101076898955	398.794551515479	652.936400115271	34.954265699641	316.799192022941	736.730033471422	95.874112348307	341.686276408011	864.686112631456	43.152233231563	312.887603545772	748.875278840702	1093.006208039924	96.916471367180	933.739024314229	907.392840548249	84.337982512103	665.957300432690	1103.859796807407	693.231106138434	707.603987200898	845.121369055404	700.066369308612	
